<?xml version="1.0" encoding="UTF-8" standalone="no" ?>
<!DOCTYPE svg PUBLIC "-//W3C//DTD SVG 1.1//EN" "http://www.w3.org/Graphics/SVG/1.1/DTD/svg11.dtd">
<svg xmlns="http://www.w3.org/2000/svg" xmlns:xlink="http://www.w3.org/1999/xlink" version="1.1" width="500" height="500" viewBox="0 0 500 500" xml:space="preserve">
<desc>Created with Fabric.js 3.6.3</desc>
<defs>
</defs>
<g transform="matrix(1,0,0,1,298.1087182601317,250)" style=""  ><path fill="#ffffff" opacity="1" d="M-96.30-0.86L-89.23-0.86L-89.23 11.87Q-92.02 12.46-94.96 12.80Q-97.91 13.13-100.94 13.13L-100.94 13.13L-102.35 13.13Q-106.87 13.13-109.84 12.11Q-112.81 11.09-114.57 9.34Q-116.34 7.59-117.05 5.23Q-117.76 2.87-117.76 0.20L-117.76 0.20L-117.76-1.84Q-117.76-4.51-117.05-6.87Q-116.34-9.23-114.57-10.98Q-112.81-12.73-109.84-13.75Q-106.87-14.77-102.35-14.77L-102.35-14.77L-100.94-14.77Q-98.11-14.77-95.36-14.44Q-92.60-14.10-90.01-13.47L-90.01-13.47L-90.01-7.07Q-92.92-7.85-95.93-8.19Q-98.93-8.52-101.13-8.52L-101.13-8.52Q-104.67-8.52-106.58-7.95Q-108.48-7.38-109.37-6.36Q-110.25-5.34-110.39-3.92Q-110.53-2.51-110.53-0.82L-110.53-0.82Q-110.53 0.87-110.39 2.28Q-110.25 3.70-109.37 4.74Q-108.48 5.78-106.58 6.35Q-104.67 6.92-101.13 6.92L-101.13 6.92Q-99.01 6.92-96.30 6.69L-96.30 6.69L-96.30-0.86Z"/><path fill="#ffffff" opacity="1" d="M-58.53-13.99L-58.53-7.70L-76.65-7.70L-76.65-3.77L-62.46-3.77L-62.46 2.52L-76.65 2.52L-76.65 12.35L-83.72 12.35L-83.72-13.99L-58.53-13.99Z"/><path fill="#ffffff" opacity="1" d="M-41.16 6.84L-41.16 6.84Q-39.04 6.84-37.84 6.63Q-36.64 6.41-36.03 6.08Q-35.42 5.74-35.27 5.33Q-35.11 4.92-35.11 4.56L-35.11 4.56Q-35.11 3.86-35.44 3.44Q-35.78 3.03-36.50 2.80Q-37.23 2.56-38.43 2.46Q-39.63 2.36-41.32 2.32L-41.32 2.32Q-42.30 2.28-43.64 2.21Q-44.97 2.13-46.39 1.87Q-47.80 1.62-49.18 1.13Q-50.55 0.63-51.63-0.25Q-52.72-1.13-53.38-2.47Q-54.05-3.81-54.05-5.73L-54.05-5.73L-54.05-6.24Q-54.05-7.93-53.44-9.49Q-52.83-11.04-51.36-12.22Q-49.89-13.40-47.39-14.08Q-44.89-14.77-41.16-14.77L-41.16-14.77L-39.75-14.77Q-37.03-14.77-34.48-14.44Q-31.93-14.10-29.49-13.47L-29.49-13.47L-29.49-6.99Q-32.36-7.66-35.17-8.05Q-37.98-8.44-40.89-8.44L-40.89-8.44Q-43.01-8.44-44.23-8.23Q-45.44-8.01-46.05-7.68Q-46.66-7.34-46.82-6.97Q-46.98-6.60-46.98-6.24L-46.98-6.24Q-46.98-5.54-46.64-5.10Q-46.31-4.67-45.56-4.44Q-44.82-4.20-43.64-4.10Q-42.46-4.00-40.81-3.96L-40.81-3.96Q-39.86-3.92-38.57-3.87Q-37.27-3.81-35.84-3.55Q-34.40-3.30-33.01-2.78Q-31.61-2.27-30.51-1.39Q-29.41-0.51-28.72 0.85Q-28.04 2.21-28.04 4.13L-28.04 4.13L-28.04 4.64Q-28.04 6.33-28.64 7.87Q-29.25 9.40-30.75 10.58Q-32.24 11.76-34.72 12.44Q-37.19 13.13-40.96 13.13L-40.96 13.13L-42.38 13.13Q-45.48 13.13-48.41 12.80Q-51.34 12.46-54.17 11.87L-54.17 11.87L-54.17 5.27Q-50.99 5.98-47.59 6.41Q-44.19 6.84-41.16 6.84Z"/><path fill="#ffffff" opacity="1" d="M-22.93 9.40L-22.93 8.93Q-22.93 8.18-22.73 7.49Q-22.53 6.80-22.06 6.29Q-21.59 5.78-20.78 5.49Q-19.98 5.19-18.76 5.19L-18.76 5.19L-18.45 5.19Q-17.23 5.19-16.42 5.49Q-15.62 5.78-15.14 6.29Q-14.67 6.80-14.48 7.49Q-14.28 8.18-14.28 8.93L-14.28 8.93L-14.28 9.40Q-14.28 10.18-14.48 10.85Q-14.67 11.52-15.14 12.03Q-15.62 12.54-16.42 12.84Q-17.23 13.13-18.45 13.13L-18.45 13.13L-18.76 13.13Q-19.98 13.13-20.78 12.84Q-21.59 12.54-22.06 12.03Q-22.53 11.52-22.73 10.85Q-22.93 10.18-22.93 9.40L-22.93 9.40Z"/><path fill="#ffffff" opacity="1" d="M-9.17 0.20L-9.17-1.84Q-9.17-4.51-8.50-6.87Q-7.83-9.23-6.22-10.98Q-4.61-12.73-1.86-13.75Q0.89-14.77 5.06-14.77L5.06-14.77L6.47-14.77Q9.14-14.77 11.66-14.44Q14.17-14.10 16.61-13.47L16.61-13.47L16.61-7.07Q15.23-7.46 13.84-7.74Q12.44-8.01 11.09-8.19Q9.73-8.37 8.49-8.44Q7.26-8.52 6.27-8.52L6.27-8.52Q3.21-8.52 1.54-7.95Q-0.13-7.38-0.90-6.36Q-1.66-5.34-1.80-3.92Q-1.94-2.51-1.94-0.82L-1.94-0.82Q-1.94 0.87-1.80 2.28Q-1.66 3.70-0.90 4.74Q-0.13 5.78 1.54 6.35Q3.21 6.92 6.27 6.92L6.27 6.92Q7.26 6.92 8.49 6.84Q9.73 6.77 11.09 6.59Q12.44 6.41 13.84 6.12Q15.23 5.82 16.61 5.43L16.61 5.43L16.61 11.87Q14.17 12.46 11.66 12.80Q9.14 13.13 6.47 13.13L6.47 13.13L5.06 13.13Q0.89 13.13-1.86 12.11Q-4.61 11.09-6.22 9.34Q-7.83 7.59-8.50 5.23Q-9.17 2.87-9.17 0.20L-9.17 0.20Z"/><path fill="#ffffff" opacity="1" d="M26.59 12.35L20.23 12.35L20.23 10.77L31.94-13.99L39.01-13.99L50.72 10.77L50.72 12.35L44.36 12.35L42.08 7.24L28.83 7.24L26.59 12.35ZM31.47 1.34L39.48 1.34L35.47-7.66L31.47 1.34Z"/><path fill="#ffffff" opacity="1" d="M67.70 6.84L67.70 6.84Q69.82 6.84 71.02 6.63Q72.22 6.41 72.83 6.08Q73.44 5.74 73.59 5.33Q73.75 4.92 73.75 4.56L73.75 4.56Q73.75 3.86 73.42 3.44Q73.08 3.03 72.36 2.80Q71.63 2.56 70.43 2.46Q69.23 2.36 67.54 2.32L67.54 2.32Q66.56 2.28 65.22 2.21Q63.89 2.13 62.47 1.87Q61.06 1.62 59.68 1.13Q58.31 0.63 57.23-0.25Q56.15-1.13 55.48-2.47Q54.81-3.81 54.81-5.73L54.81-5.73L54.81-6.24Q54.81-7.93 55.42-9.49Q56.03-11.04 57.50-12.22Q58.98-13.40 61.47-14.08Q63.97-14.77 67.70-14.77L67.70-14.77L69.11-14.77Q71.83-14.77 74.38-14.44Q76.94-14.10 79.37-13.47L79.37-13.47L79.37-6.99Q76.50-7.66 73.69-8.05Q70.88-8.44 67.97-8.44L67.97-8.44Q65.85-8.44 64.63-8.23Q63.42-8.01 62.81-7.68Q62.20-7.34 62.04-6.97Q61.88-6.60 61.88-6.24L61.88-6.24Q61.88-5.54 62.22-5.10Q62.55-4.67 63.30-4.44Q64.04-4.20 65.22-4.10Q66.40-4.00 68.05-3.96L68.05-3.96Q69.00-3.92 70.29-3.87Q71.59-3.81 73.02-3.55Q74.46-3.30 75.85-2.78Q77.25-2.27 78.35-1.39Q79.45-0.51 80.14 0.85Q80.83 2.21 80.83 4.13L80.83 4.13L80.83 4.64Q80.83 6.33 80.22 7.87Q79.61 9.40 78.11 10.58Q76.62 11.76 74.14 12.44Q71.67 13.13 67.90 13.13L67.90 13.13L66.48 13.13Q63.38 13.13 60.45 12.80Q57.52 12.46 54.69 11.87L54.69 11.87L54.69 5.27Q57.87 5.98 61.27 6.41Q64.67 6.84 67.70 6.84Z"/><path fill="#ffffff" opacity="1" d="M85.93-13.99L93.01-13.99L93.01-3.77L106.76-3.77L106.76-13.99L113.84-13.99L113.84 12.35L106.76 12.35L106.76 2.52L93.01 2.52L93.01 12.35L85.93 12.35L85.93-13.99Z"/></g>
<g transform="matrix(2.79 0 0 2.56 298.1087182601317 276.48510305151694)"  >
<linearGradient id="SVGID_52593" gradientUnits="userSpaceOnUse" gradientTransform="matrix(1 0 0 1 7.300000000000004 49)"  x1="0" y1="0" x2="85.3" y2="2">
<stop offset="0%" style="stop-color:rgb(0,255,143);stop-opacity: 1"/>
<stop offset="100%" style="stop-color:rgb(0,161,255);stop-opacity: 1"/>
</linearGradient>
<path style="stroke: none; stroke-width: 1; stroke-dasharray: none; stroke-linecap: butt; stroke-dashoffset: 0; stroke-linejoin: miter; stroke-miterlimit: 4; fill: url(#SVGID_52593); fill-rule: nonzero; opacity: 1;"  transform=" translate(-49.95, -50)" d="M 91.7 49 H 8.3 c -0.6 0 -1 0.4 -1 1 s 0.4 1 1 1 h 83.3 c 0.6 0 1 -0.4 1 -1 S 92.2 49 91.7 49 z" stroke-linecap="round" />
</g>
<g transform="matrix(2.2709775761369952 0 0 2.2709775761369952 96.80104314600248 276.48510305151694)"  >
<linearGradient id="SVGID_52594" gradientUnits="userSpaceOnUse" gradientTransform="matrix(1 0 0 1 0.46199999999999974 0.3470000000000013)"  x1="0" y1="0" x2="47.075" y2="47.080999999999996">
<stop offset="0%" style="stop-color:rgb(0,255,143);stop-opacity: 1"/>
<stop offset="100%" style="stop-color:rgb(0,161,255);stop-opacity: 1"/>
</linearGradient>
<path style="stroke: none; stroke-width: 1; stroke-dasharray: none; stroke-linecap: butt; stroke-dashoffset: 0; stroke-linejoin: miter; stroke-miterlimit: 4; fill: url(#SVGID_52594); fill-rule: nonzero; opacity: 1;"  transform=" translate(-23.9995, -23.8875)" d="M 24 47.424 c 0.008 0 0.015 0 0.022 0 c 0.01 0 0.02 0.004 0.029 0.004 c 0.001 0 0.001 0 0.002 0 s 0.001 0 0.001 0 c 0.015 0 0.03 -0.006 0.045 -0.006 c 12.933 -0.055 23.438 -10.59 23.438 -23.537 c 0 -12.915 -10.456 -23.43 -23.347 -23.533 c -0.005 0 -0.011 0 -0.015 0 C 24.117 0.351 24.06 0.347 24 0.347 c -12.979 0 -23.538 10.56 -23.538 23.538 C 0.462 36.865 11.021 47.424 24 47.424 z M 44.374 23.885 c 0 2.675 -0.523 5.228 -1.466 7.57 c -1.109 -0.391 -2.838 -0.938 -5.087 -1.461 c 0.467 -1.98 0.725 -4.025 0.725 -6.109 c 0 -2.11 -0.265 -4.183 -0.744 -6.188 c 1.665 -0.393 3.36 -0.871 5.085 -1.439 C 43.842 18.615 44.374 21.189 44.374 23.885 z M 35.381 23.885 c 0 1.869 -0.235 3.703 -0.66 5.476 c -2.625 -0.463 -5.707 -0.818 -9.138 -0.896 v -9.169 c 2.859 -0.078 5.917 -0.371 9.122 -0.951 C 35.141 20.138 35.381 21.994 35.381 23.885 z M 22.418 42.912 c -3.653 -2.662 -6.427 -6.299 -8.052 -10.436 c 2.816 -0.48 5.512 -0.721 8.052 -0.793 V 42.912 z M 25.583 42.986 V 31.68 c 3.041 0.076 5.792 0.381 8.166 0.775 C 32.11 36.641 29.295 40.313 25.583 42.986 z M 25.583 16.092 V 4.785 c 3.705 2.67 6.518 6.335 8.159 10.511 C 30.886 15.784 28.153 16.024 25.583 16.092 z M 22.418 4.859 v 11.232 c -3 -0.082 -5.714 -0.385 -8.061 -0.774 C 15.98 11.171 18.758 7.527 22.418 4.859 z M 22.418 19.3 v 9.176 c -2.83 0.082 -5.852 0.369 -9.018 0.943 c -0.435 -1.791 -0.674 -3.645 -0.674 -5.535 c 0 -1.869 0.234 -3.703 0.66 -5.478 C 15.986 18.865 19.027 19.217 22.418 19.3 z M 10.304 30.066 c -1.695 0.4 -3.424 0.889 -5.18 1.473 c -0.963 -2.365 -1.497 -4.947 -1.497 -7.654 c 0 -2.688 0.527 -5.252 1.478 -7.604 c 1.102 0.393 2.868 0.955 5.181 1.494 c -0.467 1.98 -0.724 4.025 -0.724 6.109 C 9.562 25.994 9.825 28.063 10.304 30.066 z M 6.555 34.396 c 1.58 -0.51 3.137 -0.932 4.667 -1.283 c 1.434 3.883 3.756 7.396 6.792 10.246 C 13.187 41.873 9.12 38.639 6.555 34.396 z M 30.149 43.309 c 3.021 -2.852 5.329 -6.361 6.752 -10.238 c 1.974 0.445 3.53 0.906 4.584 1.258 C 38.952 38.555 34.931 41.791 30.149 43.309 z M 41.464 13.405 c -1.549 0.497 -3.076 0.91 -4.578 1.255 c -1.425 -3.86 -3.727 -7.355 -6.736 -10.197 C 34.916 5.975 38.929 9.197 41.464 13.405 z M 18.015 4.411 c -3.049 2.861 -5.378 6.39 -6.81 10.291 c -2.03 -0.457 -3.62 -0.935 -4.674 -1.287 C 9.095 9.153 13.172 5.903 18.015 4.411 z" stroke-linecap="round" />
</g>
<g transform="matrix(1,0,0,1,298.1087182601317,296.46553947063836)" style=""  ><path fill="#ffffff" opacity="1" d="M-110.19 0.22L-110.19-1.32L-104.03-1.32L-104.03 1.76Q-104.03 2.37-104.27 2.93Q-104.50 3.48-104.92 3.91Q-105.34 4.33-105.90 4.58Q-106.46 4.84-107.11 4.84L-107.11 4.84L-111.73 4.84Q-112.34 4.84-112.91 4.60Q-113.47 4.36-113.89 3.94Q-114.31 3.53-114.56 2.97Q-114.81 2.40-114.81 1.76L-114.81 1.76L-114.81-2.86Q-114.81-3.48-114.57-4.03Q-114.33-4.59-113.91-5.01Q-113.50-5.43-112.94-5.69Q-112.37-5.94-111.73-5.94L-111.73-5.94L-107.11-5.94Q-106.49-5.94-105.94-5.70Q-105.38-5.46-104.97-5.05Q-104.55-4.63-104.30-4.07Q-104.04-3.51-104.03-2.86L-104.03-2.86L-105.57-2.86Q-105.57-3.51-106.01-3.96Q-106.46-4.40-107.11-4.40L-107.11-4.40L-111.73-4.40Q-112.37-4.40-112.82-3.96Q-113.27-3.51-113.27-2.86L-113.27-2.86L-113.27 1.76Q-113.27 2.40-112.82 2.85Q-112.37 3.30-111.73 3.30L-111.73 3.30L-107.11 3.30Q-106.46 3.30-106.01 2.85Q-105.57 2.40-105.57 1.76L-105.57 1.76L-105.57 0.22L-110.19 0.22Z"/><path fill="#ffffff" opacity="1" d="M-101.10-5.94L-101.10 3.30L-91.86 3.30L-91.86 4.84L-102.64 4.84L-102.64-5.94L-101.10-5.94Z"/><path fill="#ffffff" opacity="1" d="M-82.31 1.76L-82.31-2.86Q-82.31-3.51-82.76-3.96Q-83.21-4.40-83.85-4.40L-83.85-4.40L-88.47-4.40Q-89.12-4.40-89.57-3.96Q-90.01-3.51-90.01-2.86L-90.01-2.86L-90.01 1.76Q-90.01 2.40-89.57 2.85Q-89.12 3.30-88.47 3.30L-88.47 3.30L-83.85 3.30Q-83.21 3.30-82.76 2.85Q-82.31 2.40-82.31 1.76L-82.31 1.76ZM-80.77-2.86L-80.77 1.76Q-80.77 2.39-81.02 2.95Q-81.27 3.51-81.68 3.93Q-82.10 4.34-82.66 4.59Q-83.22 4.84-83.85 4.84L-83.85 4.84L-88.47 4.84Q-89.12 4.84-89.68 4.60Q-90.24 4.36-90.66 3.94Q-91.08 3.53-91.31 2.97Q-91.55 2.40-91.55 1.76L-91.55 1.76L-91.55-2.86Q-91.55-3.49-91.31-4.06Q-91.06-4.62-90.64-5.03Q-90.23-5.45-89.67-5.70Q-89.10-5.94-88.47-5.94L-88.47-5.94L-83.85-5.94Q-83.24-5.94-82.68-5.70Q-82.13-5.45-81.70-5.03Q-81.28-4.62-81.03-4.06Q-80.77-3.49-80.77-2.86L-80.77-2.86Z"/><path fill="#ffffff" opacity="1" d="M-71.69 4.84L-79.39 4.84L-79.39-5.94L-71.69-5.94Q-71.09-5.94-70.52-5.70Q-69.96-5.46-69.54-5.05Q-69.12-4.63-68.86-4.07Q-68.61-3.51-68.61-2.86L-68.61-2.86Q-68.61-1.48-69.65-0.55L-69.65-0.55Q-68.61 0.37-68.61 1.76L-68.61 1.76Q-68.61 2.39-68.85 2.94Q-69.08 3.48-69.50 3.90Q-69.92 4.31-70.48 4.57Q-71.04 4.82-71.69 4.84L-71.69 4.84ZM-71.69 0.22L-77.85 0.22L-77.85 3.30L-71.69 3.30Q-71.04 3.30-70.59 2.85Q-70.15 2.40-70.15 1.76L-70.15 1.76Q-70.15 1.11-70.59 0.66Q-71.04 0.22-71.69 0.22L-71.69 0.22ZM-77.85-4.40L-77.85-1.32L-71.69-1.32Q-71.04-1.32-70.59-1.77Q-70.15-2.22-70.15-2.86L-70.15-2.86Q-70.15-3.51-70.59-3.96Q-71.04-4.40-71.69-4.40L-71.69-4.40L-77.85-4.40Z"/><path fill="#ffffff" opacity="1" d="M-59.52-4.40L-64.14-4.40Q-64.79-4.40-65.23-3.96Q-65.68-3.51-65.68-2.86L-65.68-2.86L-65.68 0.22L-57.98 0.22L-57.98-2.86Q-57.98-3.51-58.43-3.96Q-58.87-4.40-59.52-4.40L-59.52-4.40ZM-56.44-2.86L-56.44 4.84L-57.98 4.84L-57.98 1.76L-65.68 1.76L-65.68 4.84L-67.22 4.84L-67.22-2.86Q-67.22-3.48-66.98-4.03Q-66.74-4.59-66.33-5.01Q-65.91-5.43-65.35-5.69Q-64.79-5.94-64.14-5.94L-64.14-5.94L-59.52-5.94Q-58.91-5.94-58.35-5.70Q-57.80-5.46-57.38-5.05Q-56.96-4.63-56.71-4.07Q-56.46-3.51-56.44-2.86L-56.44-2.86Z"/><path fill="#ffffff" opacity="1" d="M-53.36-5.94L-53.36 3.30L-44.12 3.30L-44.12 4.84L-54.90 4.84L-54.90-5.94L-53.36-5.94Z"/><path fill="#ffffff" opacity="1" d=""/><path fill="#ffffff" opacity="1" d="M-35.65-4.40L-35.65-1.32L-27.95-1.32L-27.95 0.22L-35.65 0.22L-35.65 4.84L-37.19 4.84L-37.19-5.94L-26.41-5.94L-26.41-4.40L-35.65-4.40Z"/><path fill="#ffffff" opacity="1" d="M-25.33 4.84L-25.33-5.94L-23.79-5.94L-23.79 4.84L-25.33 4.84Z"/><path fill="#ffffff" opacity="1" d="M-11.47-5.94L-11.47 4.84L-13.01 4.84L-20.71-3.45L-20.71 4.84L-22.25 4.84L-22.25-5.94L-20.71-5.94L-13.01 2.22L-13.01-5.94L-11.47-5.94Z"/><path fill="#ffffff" opacity="1" d="M-2.23-4.40L-6.85-4.40Q-7.50-4.40-7.95-3.96Q-8.39-3.51-8.39-2.86L-8.39-2.86L-8.39 0.22L-0.69 0.22L-0.69-2.86Q-0.69-3.51-1.14-3.96Q-1.59-4.40-2.23-4.40L-2.23-4.40ZM0.85-2.86L0.85 4.84L-0.69 4.84L-0.69 1.76L-8.39 1.76L-8.39 4.84L-9.93 4.84L-9.93-2.86Q-9.93-3.48-9.69-4.03Q-9.46-4.59-9.04-5.01Q-8.62-5.43-8.06-5.69Q-7.50-5.94-6.85-5.94L-6.85-5.94L-2.23-5.94Q-1.62-5.94-1.06-5.70Q-0.51-5.46-0.09-5.05Q0.32-4.63 0.58-4.07Q0.83-3.51 0.85-2.86L0.85-2.86Z"/><path fill="#ffffff" opacity="1" d="M13.17-5.94L13.17 4.84L11.63 4.84L3.93-3.45L3.93 4.84L2.39 4.84L2.39-5.94L3.93-5.94L11.63 2.22L11.63-5.94L13.17-5.94Z"/><path fill="#ffffff" opacity="1" d="M17.63-5.94L22.25-5.94Q22.87-5.94 23.42-5.70Q23.98-5.46 24.39-5.05Q24.81-4.63 25.06-4.07Q25.32-3.51 25.33-2.86L25.33-2.86L23.79-2.86Q23.79-3.51 23.35-3.96Q22.90-4.40 22.25-4.40L22.25-4.40L17.63-4.40Q16.99-4.40 16.54-3.96Q16.09-3.51 16.09-2.86L16.09-2.86L16.09 1.76Q16.09 2.40 16.54 2.85Q16.99 3.30 17.63 3.30L17.63 3.30L22.25 3.30Q22.90 3.30 23.35 2.85Q23.79 2.40 23.79 1.76L23.79 1.76L25.33 1.76Q25.33 2.37 25.09 2.93Q24.86 3.48 24.44 3.91Q24.02 4.33 23.46 4.58Q22.90 4.84 22.25 4.84L22.25 4.84L17.63 4.84Q17.02 4.84 16.45 4.60Q15.89 4.36 15.47 3.94Q15.05 3.53 14.80 2.97Q14.55 2.40 14.55 1.76L14.55 1.76L14.55-2.86Q14.55-3.48 14.79-4.03Q15.03-4.59 15.45-5.00Q15.86-5.42 16.42-5.67Q16.99-5.93 17.63-5.94L17.63-5.94Z"/><path fill="#ffffff" opacity="1" d="M28.10-4.40L28.10-1.32L35.80-1.32L35.80 0.22L28.10 0.22L28.10 3.30L37.34 3.30L37.34 4.84L26.56 4.84L26.56-5.94L37.34-5.94L37.34-4.40L28.10-4.40Z"/><path fill="#ffffff" opacity="1" d=""/><path fill="#ffffff" opacity="1" d="M55.36 1.76L55.36 1.76Q55.36 2.37 55.12 2.93Q54.89 3.48 54.47 3.91Q54.05 4.33 53.49 4.58Q52.93 4.84 52.28 4.84L52.28 4.84L47.66 4.84Q47.03 4.84 46.48 4.60Q45.92 4.36 45.51 3.94Q45.09 3.53 44.84 2.97Q44.60 2.40 44.58 1.76L44.58 1.76L46.12 1.76Q46.12 2.40 46.57 2.85Q47.02 3.30 47.66 3.30L47.66 3.30L52.28 3.30Q52.93 3.30 53.38 2.85Q53.82 2.40 53.82 1.76L53.82 1.76Q53.82 1.11 53.38 0.66Q52.93 0.22 52.28 0.22L52.28 0.22L47.66 0.22Q47.05 0.22 46.48-0.02Q45.92-0.26 45.50-0.68Q45.08-1.09 44.83-1.65Q44.58-2.22 44.58-2.86L44.58-2.86Q44.58-3.48 44.82-4.03Q45.06-4.59 45.48-5.01Q45.89-5.43 46.45-5.69Q47.02-5.94 47.66-5.94L47.66-5.94L52.28-5.94Q52.90-5.94 53.45-5.70Q54.01-5.46 54.42-5.05Q54.84-4.63 55.09-4.07Q55.35-3.51 55.36-2.86L55.36-2.86L53.82-2.86Q53.82-3.51 53.38-3.96Q52.93-4.40 52.28-4.40L52.28-4.40L47.66-4.40Q47.02-4.40 46.57-3.96Q46.12-3.51 46.12-2.86L46.12-2.86Q46.12-2.22 46.57-1.77Q47.02-1.32 47.66-1.32L47.66-1.32L52.28-1.32Q52.88-1.32 53.45-1.08Q54.01-0.84 54.43-0.43Q54.85-0.01 55.11 0.55Q55.36 1.11 55.36 1.76Z"/><path fill="#ffffff" opacity="1" d="M67.07-3.63L62.45 1.45L62.45 4.84L60.91 4.84L60.91 1.45L56.29-3.63L56.29-5.94L57.83-5.94L57.83-4.26L61.68-0.03L65.53-4.26L65.53-5.94L67.07-5.94L67.07-3.63Z"/><path fill="#ffffff" opacity="1" d="M78.46 1.76L78.46 1.76Q78.46 2.37 78.22 2.93Q77.99 3.48 77.57 3.91Q77.15 4.33 76.59 4.58Q76.03 4.84 75.38 4.84L75.38 4.84L70.76 4.84Q70.13 4.84 69.58 4.60Q69.02 4.36 68.61 3.94Q68.19 3.53 67.94 2.97Q67.70 2.40 67.68 1.76L67.68 1.76L69.22 1.76Q69.22 2.40 69.67 2.85Q70.12 3.30 70.76 3.30L70.76 3.30L75.38 3.30Q76.03 3.30 76.48 2.85Q76.92 2.40 76.92 1.76L76.92 1.76Q76.92 1.11 76.48 0.66Q76.03 0.22 75.38 0.22L75.38 0.22L70.76 0.22Q70.15 0.22 69.58-0.02Q69.02-0.26 68.60-0.68Q68.18-1.09 67.93-1.65Q67.68-2.22 67.68-2.86L67.68-2.86Q67.68-3.48 67.92-4.03Q68.16-4.59 68.58-5.01Q68.99-5.43 69.55-5.69Q70.12-5.94 70.76-5.94L70.76-5.94L75.38-5.94Q76.00-5.94 76.55-5.70Q77.11-5.46 77.52-5.05Q77.94-4.63 78.19-4.07Q78.45-3.51 78.46-2.86L78.46-2.86L76.92-2.86Q76.92-3.51 76.48-3.96Q76.03-4.40 75.38-4.40L75.38-4.40L70.76-4.40Q70.12-4.40 69.67-3.96Q69.22-3.51 69.22-2.86L69.22-2.86Q69.22-2.22 69.67-1.77Q70.12-1.32 70.76-1.32L70.76-1.32L75.38-1.32Q75.98-1.32 76.55-1.08Q77.11-0.84 77.53-0.43Q77.95-0.01 78.21 0.55Q78.46 1.11 78.46 1.76Z"/><path fill="#ffffff" opacity="1" d="M89.55-4.40L84.93-4.40L84.93 4.84L83.39 4.84L83.39-4.40L78.77-4.40L78.77-5.94L89.55-5.94L89.55-4.40Z"/><path fill="#ffffff" opacity="1" d="M91.86-4.40L91.86-1.32L99.56-1.32L99.56 0.22L91.86 0.22L91.86 3.30L101.10 3.30L101.10 4.84L90.32 4.84L90.32-5.94L101.10-5.94L101.10-4.40L91.86-4.40Z"/><path fill="#ffffff" opacity="1" d="M108.49 3.48L103.87-3.19L103.87 4.84L102.33 4.84L102.33-5.94L103.87-5.94L108.49 0.73L113.11-5.94L114.65-5.94L114.65 4.84L113.11 4.84L113.11-3.19L108.49 3.48Z"/></g>
</svg>